<svg height="62.994" viewBox="0 0 390.5 62.994" width="390.5" xmlns="http://www.w3.org/2000/svg">
  <g data-name="Group 6003" id="Group_6003" transform="translate(-980.5 220.55)">
    <g data-name="Group 5236" id="Group_5236" transform="translate(1065.801 -220.427)">
      <rect data-name="Rectangle 26747" fill="#f26611" height="62.107" id="Rectangle_26747" transform="translate(0.009 0.181)" width="5.646"/>
      <path d="M139.067,221.423l-5.646-6.361v29.693l5.646-6.361Z" data-name="Path 1231" fill="#f26611" id="Path_1231" transform="translate(-122.103 -195.446)"/>
      <path d="M133.421,244.8h5.646V233.962l-5.646,6.361Z" data-name="Path 1232" fill="#f26611" id="Path_1232" transform="translate(-122.103 -182.509)"/>
      <path d="M156.919,256.338l5.646,6.361V207.487l-5.646,6.361Z" data-name="Path 1233" fill="#f26611" id="Path_1233" transform="translate(-106.019 -200.63)"/>
      <path d="M166.115,214.719v-8.505l-22.631,25.5,3.774,4.252Z" data-name="Path 1234" fill="#f26611" id="Path_1234" transform="translate(-115.215 -201.502)"/>
      <path d="M133.421,235.274v8.505l5.646-6.361v-8.5Z" data-name="Path 1235" fill="#f26611" id="Path_1235" transform="translate(-122.103 -185.965)"/>
      <path d="M162.565,210.2v-6.676h-1.623l-4.023,4.532v8.505Z" data-name="Path 1236" fill="#f26611" id="Path_1236" transform="translate(-106.019 -203.343)"/>
      <path d="M144.3,230.779l3.774-4.252-11.306-12.738v8.5Z" data-name="Path 1237" fill="#f26611" id="Path_1237" transform="translate(-119.809 -196.317)"/>
      <path d="M139.067,216.374l-5.646-6.361v8.5l5.646,6.361Z" data-name="Path 1238" fill="#f26611" id="Path_1238" transform="translate(-122.103 -198.901)"/>
      <path d="M156.919,243.068h5.646v-.219l-5.646-6.361Z" data-name="Path 1239" fill="#f26611" id="Path_1239" transform="translate(-106.019 -180.78)"/>
      <path d="M145.018,221.351l-3.774,4.253,3.774,4.252,3.774-4.252Z" data-name="Path 1240" fill="#f26611" id="Path_1240" transform="translate(-116.749 -191.141)"/>
      <g data-name="Group 5234" id="Group_5234" transform="translate(39.591 28.103)">
        <path d="M150.205,226.461v27.824h5.646V220.1Z" data-name="Path 1241" fill="#f26611" id="Path_1241" transform="translate(-150.205 -220.1)"/>
      </g>
      <rect data-name="Rectangle 26748" fill="#f26611" height="5.646" id="Rectangle_26748" transform="translate(16.964 62.288) rotate(180)" width="16.964"/>
      <rect data-name="Rectangle 26749" fill="#f26611" height="5.646" id="Rectangle_26749" transform="translate(56.55 62.288) rotate(180)" width="16.964"/>
      <g data-name="Group 5235" id="Group_5235" transform="translate(8.803 0)">
        <path d="M142.452,206.768H134.9l10.71,12.067,3.774-4.253Z" data-name="Path 1242" fill="#f26611" id="Path_1242" transform="translate(-129.892 -201.122)"/>
        <path d="M157.826,206.876h-7.549l-6.775,7.634,3.774,4.252Z" data-name="Path 1243" fill="#f26611" id="Path_1243" transform="translate(-124.006 -201.049)"/>
        <path d="M145.035,211.407l-3.774,4.252,3.774,4.253,3.774-4.253Z" data-name="Path 1244" fill="#f26611" id="Path_1244" transform="translate(-125.54 -197.947)"/>
        <path d="M139.477,203.417h-7.549l5.011,5.646h7.549Z" data-name="Path 1245" fill="#f26611" id="Path_1245" transform="translate(-131.928 -203.417)"/>
        <path d="M160.084,203.524h-7.549l-5.011,5.646h7.549Z" data-name="Path 1246" fill="#f26611" id="Path_1246" transform="translate(-121.253 -203.343)"/>
      </g>
      <rect data-name="Rectangle 26750" fill="#f26611" height="5.646" id="Rectangle_26750" transform="translate(0.009)" width="15.908"/>
    </g>
    <g data-name="Group 5239" id="Group_5239" transform="translate(1150.581 -220.427)">
      <rect data-name="Rectangle 26751" fill="#fff" height="62.107" id="Rectangle_26751" transform="translate(0.009 0.181)" width="5.646"/>
      <path d="M189.4,221.423l-5.646-6.361v29.693l5.646-6.361Z" data-name="Path 1247" fill="#fff" id="Path_1247" transform="translate(-172.433 -195.446)"/>
      <path d="M183.751,244.8H189.4V233.962l-5.646,6.361Z" data-name="Path 1248" fill="#fff" id="Path_1248" transform="translate(-172.433 -182.509)"/>
      <path d="M207.249,256.338l5.646,6.361V207.487l-5.646,6.361Z" data-name="Path 1249" fill="#fff" id="Path_1249" transform="translate(-156.349 -200.63)"/>
      <path d="M216.445,214.719v-8.505l-22.631,25.5,3.774,4.252Z" data-name="Path 1250" fill="#fff" id="Path_1250" transform="translate(-165.545 -201.502)"/>
      <path d="M183.751,235.274v8.505l5.646-6.361v-8.5Z" data-name="Path 1251" fill="#fff" id="Path_1251" transform="translate(-172.433 -185.965)"/>
      <path d="M212.895,210.2v-6.676h-1.623l-4.022,4.532v8.505Z" data-name="Path 1252" fill="#fff" id="Path_1252" transform="translate(-156.349 -203.343)"/>
      <path d="M194.634,230.779l3.774-4.252L187.1,213.789v8.5Z" data-name="Path 1253" fill="#fff" id="Path_1253" transform="translate(-170.139 -196.317)"/>
      <path d="M189.4,216.374l-5.646-6.361v8.5l5.646,6.361Z" data-name="Path 1254" fill="#fff" id="Path_1254" transform="translate(-172.433 -198.901)"/>
      <path d="M207.249,243.068h5.646v-.219l-5.646-6.361Z" data-name="Path 1255" fill="#fff" id="Path_1255" transform="translate(-156.349 -180.78)"/>
      <path d="M195.348,221.351l-3.774,4.253,3.774,4.252,3.774-4.252Z" data-name="Path 1256" fill="#fff" id="Path_1256" transform="translate(-167.079 -191.141)"/>
      <g data-name="Group 5237" id="Group_5237" transform="translate(39.591 28.103)">
        <path d="M200.535,226.461v27.824h5.646V220.1Z" data-name="Path 1257" fill="#fff" id="Path_1257" transform="translate(-200.535 -220.1)"/>
      </g>
      <rect data-name="Rectangle 26752" fill="#fff" height="5.646" id="Rectangle_26752" transform="translate(16.964 62.288) rotate(180)" width="16.964"/>
      <rect data-name="Rectangle 26753" fill="#fff" height="5.646" id="Rectangle_26753" transform="translate(56.55 62.288) rotate(180)" width="16.964"/>
      <g data-name="Group 5238" id="Group_5238" transform="translate(8.803 0)">
        <path d="M192.782,206.768h-7.549l10.71,12.067,3.774-4.253Z" data-name="Path 1258" fill="#fff" id="Path_1258" transform="translate(-180.222 -201.122)"/>
        <path d="M208.156,206.876h-7.549l-6.775,7.634,3.774,4.252Z" data-name="Path 1259" fill="#fff" id="Path_1259" transform="translate(-174.336 -201.049)"/>
        <path d="M195.366,211.407l-3.774,4.252,3.774,4.253,3.774-4.253Z" data-name="Path 1260" fill="#fff" id="Path_1260" transform="translate(-175.87 -197.947)"/>
        <path d="M189.807,203.417h-7.549l5.011,5.646h7.549Z" data-name="Path 1261" fill="#fff" id="Path_1261" transform="translate(-182.258 -203.417)"/>
        <path d="M210.414,203.524h-7.549l-5.011,5.646H205.4Z" data-name="Path 1262" fill="#fff" id="Path_1262" transform="translate(-171.583 -203.343)"/>
      </g>
      <rect data-name="Rectangle 26754" fill="#fff" height="5.646" id="Rectangle_26754" transform="translate(0.009)" width="15.908"/>
    </g>
    <path d="M139.425,203.524H99.853v62.107h39.572Zm-5.645,5.646v50.814H105.506V209.17Z" data-name="Path 1263" fill="#f26611" id="Path_1263" transform="translate(920.721 -423.77)"/>
    <path d="M123.534,210.227H106.561V249.75h16.973Zm-5.663,5.646V244.1h-5.646v-28.23Z" data-name="Path 1264" fill="#f26611" id="Path_1264" transform="translate(925.313 -419.182)"/>
    <g data-name="Group 5240" id="Group_5240" transform="translate(1128.016 -220.025)">
      <path d="M180.447,220.594v-5.646h0V209.3h0v-5.646H163.763V209.3H174.8v5.646H163.637v50.815h5.646V220.594h11.165Z" data-name="Path 1265" fill="#f26611" id="Path_1265" transform="translate(-163.637 -203.655)"/>
      <rect data-name="Rectangle 26755" fill="#f26611" height="39.523" id="Rectangle_26755" transform="translate(11.3 22.584)" width="5.646"/>
    </g>
    <g data-name="Group 5241" id="Group_5241" transform="translate(1308.838 -220.025)">
      <path d="M287.793,220.594v-5.646h0V209.3h0v-5.646H271.109V209.3h11.036v5.646H270.983v50.815h5.646V220.594h11.165Z" data-name="Path 1266" fill="#fff" id="Path_1266" transform="translate(-270.983 -203.655)"/>
      <rect data-name="Rectangle 26756" fill="#fff" height="39.523" id="Rectangle_26756" transform="translate(11.3 22.584)" width="5.646"/>
    </g>
    <g data-name="Group 5242" id="Group_5242" transform="translate(1212.666 -220.426)">
      <path d="M213.889,203.417V265.7h16.964V248.765H236.5V265.7h16.958V203.417Zm33.919,56.641H242.15V243.12H225.2v16.937h-5.655v-51h28.264Z" data-name="Path 1267" fill="#fff" id="Path_1267" transform="translate(-213.889 -203.417)"/>
      <path d="M237.561,210.227H220.6v22.586h16.963Zm-5.653,16.939h-5.646V215.873h5.646Z" data-name="Path 1268" fill="#fff" id="Path_1268" transform="translate(-209.297 -198.756)"/>
    </g>
    <g data-name="Group 5243" id="Group_5243" transform="translate(1331.432 -220.426)">
      <path d="M284.395,203.417V265.7h16.963V248.765H307V265.7h16.959V203.417Zm33.917,56.641h-5.658V243.12H295.7v16.937h-5.655v-51h28.264Z" data-name="Path 1269" fill="#fff" id="Path_1269" transform="translate(-284.395 -203.417)"/>
      <path d="M308.067,210.227H291.1v22.586h16.964Zm-5.655,16.939h-5.646V215.873h5.646Z" data-name="Path 1270" fill="#fff" id="Path_1270" transform="translate(-279.803 -198.756)"/>
    </g>
    <g data-name="Group 5247" id="Group_5247" transform="translate(1258.057 -220.206)">
      <rect data-name="Rectangle 26757" fill="#fff" height="62.107" id="Rectangle_26757" transform="translate(39.282 0.181)" width="5.646"/>
      <rect data-name="Rectangle 26758" fill="#fff" height="5.646" id="Rectangle_26758" transform="translate(14.389 62.288) rotate(180)" width="11.029"/>
      <g data-name="Group 5244" id="Group_5244" transform="translate(0 0.267)">
        <path d="M240.836,261.458h5.646V220.251l-5.646-10.307Z" data-name="Path 1271" fill="#fff" id="Path_1271" transform="translate(-240.836 -199.437)"/>
        <path d="M271.2,242.819v-5.646h-12.03l3.093,5.646Z" data-name="Path 1272" fill="#fff" id="Path_1272" transform="translate(-228.288 -180.799)"/>
        <path d="M244.187,209.825v10.506l19.478,35.561h5.755Z" data-name="Path 1273" fill="#fff" id="Path_1273" transform="translate(-238.542 -199.518)"/>
        <path d="M240.836,203.706v10.506l5.646,10.307V214.014Z" data-name="Path 1274" fill="#fff" id="Path_1274" transform="translate(-240.836 -203.706)"/>
        <path d="M261.505,237.173h-5.755l3.093,5.646H264.6Z" data-name="Path 1275" fill="#fff" id="Path_1275" transform="translate(-230.627 -180.799)"/>
      </g>
      <g data-name="Group 5245" id="Group_5245" transform="translate(11.18 41.665)">
        <path d="M247.473,248.905h5.646V238.589l-5.646-10.307Z" data-name="Path 1276" fill="#fff" id="Path_1276" transform="translate(-247.473 -228.282)"/>
      </g>
      <g data-name="Group 5246" id="Group_5246" transform="translate(5.597)">
        <path d="M263.266,203.655H257.62v30.712l5.646,10.307Z" data-name="Path 1277" fill="#fff" id="Path_1277" transform="translate(-234.944 -203.475)"/>
        <path d="M249.913,203.548h-5.755l22.676,41.4V234.44Z" data-name="Path 1278" fill="#fff" id="Path_1278" transform="translate(-244.158 -203.548)"/>
        <path d="M257.62,221.887v10.506l5.646,10.307V232.194Z" data-name="Path 1279" fill="#fff" id="Path_1279" transform="translate(-234.944 -190.995)"/>
      </g>
    </g>
    <path d="M0,61.994V0H22.6V5.5H5.5v51H28.115V50.516H11.305V11.1h16.81V0h5.5V16.592H16.8V45.019H33.612V61.957H29.8v.037Z" data-name="Union 1" fill="#f26611" id="Union_1" stroke="rgba(0,0,0,0)" stroke-miterlimit="10" stroke-width="1" transform="translate(981 -220.05)"/>
  </g>
</svg>
