<svg height="28.658" viewBox="0 0 178.8 28.658" width="178.8" xmlns="http://www.w3.org/2000/svg">
  <g data-name="Group 5920" id="Group_5920" transform="translate(-76.36 -203.417)">
    <g data-name="Group 5236" id="Group_5236" transform="translate(115.238 203.417)">
      <rect data-name="Rectangle 26747" fill="#f26611" height="28.474" id="Rectangle_26747" transform="translate(0.004 0.083)" width="2.588"/>
      <path d="M136.009,217.978l-2.588-2.916v13.613l2.588-2.916Z" data-name="Path 1231" fill="#f26611" id="Path_1231" transform="translate(-128.232 -206.069)"/>
      <path d="M133.421,238.929h2.588v-4.967l-2.588,2.916Z" data-name="Path 1232" fill="#f26611" id="Path_1232" transform="translate(-128.232 -210.373)"/>
      <path d="M156.919,229.883l2.588,2.916V207.487l-2.588,2.916Z" data-name="Path 1233" fill="#f26611" id="Path_1233" transform="translate(-133.583 -204.344)"/>
      <path d="M153.859,210.114v-3.9L143.484,217.9l1.73,1.95Z" data-name="Path 1234" fill="#f26611" id="Path_1234" transform="translate(-130.524 -204.054)"/>
      <path d="M133.421,231.829v3.9l2.588-2.916v-3.9Z" data-name="Path 1235" fill="#f26611" id="Path_1235" transform="translate(-128.232 -209.223)"/>
      <path d="M159.507,206.585v-3.061h-.744l-1.844,2.078v3.9Z" data-name="Path 1236" fill="#f26611" id="Path_1236" transform="translate(-133.583 -203.441)"/>
      <path d="M140.225,221.578l1.73-1.95-5.183-5.84v3.9Z" data-name="Path 1237" fill="#f26611" id="Path_1237" transform="translate(-128.995 -205.779)"/>
      <path d="M136.009,212.929l-2.588-2.916v3.9l2.588,2.916Z" data-name="Path 1238" fill="#f26611" id="Path_1238" transform="translate(-128.232 -204.919)"/>
      <path d="M156.919,239.5h2.588v-.1l-2.588-2.916Z" data-name="Path 1239" fill="#f26611" id="Path_1239" transform="translate(-133.583 -210.948)"/>
      <path d="M142.974,221.351l-1.73,1.95,1.73,1.95,1.73-1.95Z" data-name="Path 1240" fill="#f26611" id="Path_1240" transform="translate(-130.014 -207.501)"/>
      <g data-name="Group 5234" id="Group_5234" transform="translate(18.151 12.884)">
        <path d="M150.205,223.016v12.756h2.588V220.1Z" data-name="Path 1241" fill="#f26611" id="Path_1241" transform="translate(-150.205 -220.1)"/>
      </g>
      <rect data-name="Rectangle 26748" fill="#f26611" height="2.589" id="Rectangle_26748" transform="translate(7.777 28.556) rotate(180)" width="7.777"/>
      <rect data-name="Rectangle 26749" fill="#f26611" height="2.589" id="Rectangle_26749" transform="translate(25.926 28.556) rotate(180)" width="7.777"/>
      <g data-name="Group 5235" id="Group_5235" transform="translate(4.036 0)">
        <path d="M138.364,206.768H134.9l4.91,5.532,1.73-1.95Z" data-name="Path 1242" fill="#f26611" id="Path_1242" transform="translate(-132.606 -204.18)"/>
        <path d="M150.069,206.876h-3.461l-3.106,3.5,1.73,1.95Z" data-name="Path 1243" fill="#f26611" id="Path_1243" transform="translate(-134.564 -204.204)"/>
        <path d="M142.991,211.407l-1.73,1.95,1.73,1.95,1.73-1.95Z" data-name="Path 1244" fill="#f26611" id="Path_1244" transform="translate(-134.053 -205.236)"/>
        <path d="M135.389,203.417h-3.461l2.3,2.588h3.461Z" data-name="Path 1245" fill="#f26611" id="Path_1245" transform="translate(-131.928 -203.417)"/>
        <path d="M153.282,203.524h-3.461l-2.3,2.589h3.461Z" data-name="Path 1246" fill="#f26611" id="Path_1246" transform="translate(-135.48 -203.441)"/>
      </g>
      <rect data-name="Rectangle 26750" fill="#f26611" height="2.589" id="Rectangle_26750" transform="translate(0.004)" width="7.293"/>
    </g>
    <g data-name="Group 5239" id="Group_5239" transform="translate(154.106 203.417)">
      <rect data-name="Rectangle 26751" fill="#0053a2" height="28.474" id="Rectangle_26751" transform="translate(0.004 0.083)" width="2.588"/>
      <path d="M186.34,217.978l-2.588-2.916v13.613l2.588-2.916Z" data-name="Path 1247" fill="#0053a2" id="Path_1247" transform="translate(-178.562 -206.069)"/>
      <path d="M183.751,238.929h2.588v-4.967l-2.588,2.916Z" data-name="Path 1248" fill="#0053a2" id="Path_1248" transform="translate(-178.562 -210.373)"/>
      <path d="M207.249,229.883l2.588,2.916V207.487l-2.588,2.916Z" data-name="Path 1249" fill="#0053a2" id="Path_1249" transform="translate(-183.914 -204.344)"/>
      <path d="M204.19,210.114v-3.9L193.814,217.9l1.73,1.95Z" data-name="Path 1250" fill="#0053a2" id="Path_1250" transform="translate(-180.854 -204.054)"/>
      <path d="M183.751,231.829v3.9l2.588-2.916v-3.9Z" data-name="Path 1251" fill="#0053a2" id="Path_1251" transform="translate(-178.562 -209.223)"/>
      <path d="M209.837,206.585v-3.061h-.744l-1.844,2.078v3.9Z" data-name="Path 1252" fill="#0053a2" id="Path_1252" transform="translate(-183.914 -203.441)"/>
      <path d="M190.556,221.578l1.73-1.95-5.183-5.84v3.9Z" data-name="Path 1253" fill="#0053a2" id="Path_1253" transform="translate(-179.326 -205.779)"/>
      <path d="M186.34,212.929l-2.588-2.916v3.9l2.588,2.916Z" data-name="Path 1254" fill="#0053a2" id="Path_1254" transform="translate(-178.562 -204.919)"/>
      <path d="M207.249,239.5h2.588v-.1l-2.588-2.916Z" data-name="Path 1255" fill="#0053a2" id="Path_1255" transform="translate(-183.914 -210.948)"/>
      <path d="M193.3,221.351l-1.73,1.95,1.73,1.95,1.73-1.95Z" data-name="Path 1256" fill="#0053a2" id="Path_1256" transform="translate(-180.344 -207.501)"/>
      <g data-name="Group 5237" id="Group_5237" transform="translate(18.151 12.884)">
        <path d="M200.535,223.016v12.756h2.588V220.1Z" data-name="Path 1257" fill="#0053a2" id="Path_1257" transform="translate(-200.535 -220.1)"/>
      </g>
      <rect data-name="Rectangle 26752" fill="#0053a2" height="2.589" id="Rectangle_26752" transform="translate(7.777 28.556) rotate(180)" width="7.777"/>
      <rect data-name="Rectangle 26753" fill="#0053a2" height="2.589" id="Rectangle_26753" transform="translate(25.926 28.556) rotate(180)" width="7.777"/>
      <g data-name="Group 5238" id="Group_5238" transform="translate(4.036 0)">
        <path d="M188.694,206.768h-3.461l4.91,5.532,1.73-1.95Z" data-name="Path 1258" fill="#0053a2" id="Path_1258" transform="translate(-182.936 -204.18)"/>
        <path d="M200.4,206.876h-3.461l-3.106,3.5,1.73,1.95Z" data-name="Path 1259" fill="#0053a2" id="Path_1259" transform="translate(-184.894 -204.204)"/>
        <path d="M193.322,211.407l-1.73,1.95,1.73,1.95,1.73-1.95Z" data-name="Path 1260" fill="#0053a2" id="Path_1260" transform="translate(-184.384 -205.236)"/>
        <path d="M185.719,203.417h-3.461l2.3,2.588h3.461Z" data-name="Path 1261" fill="#0053a2" id="Path_1261" transform="translate(-182.258 -203.417)"/>
        <path d="M203.612,203.524h-3.461l-2.3,2.589h3.461Z" data-name="Path 1262" fill="#0053a2" id="Path_1262" transform="translate(-185.81 -203.441)"/>
      </g>
      <rect data-name="Rectangle 26754" fill="#0053a2" height="2.589" id="Rectangle_26754" transform="translate(0.004)" width="7.293"/>
    </g>
    <path d="M118,203.524H99.853V232H118Zm-2.588,2.589v23.3H102.445v-23.3Z" data-name="Path 1263" fill="#f26611" id="Path_1263" transform="translate(-5.35 -0.024)"/>
    <path d="M114.342,210.227h-7.781v18.12h7.781Zm-2.6,2.589v12.942h-2.589V212.816Z" data-name="Path 1264" fill="#f26611" id="Path_1264" transform="translate(-6.878 -1.551)"/>
    <g data-name="Group 5240" id="Group_5240" transform="translate(143.761 203.601)">
      <path d="M171.344,211.421v-2.589h0v-2.588h0v-2.589h-7.649v2.589h5.06v2.588h-5.118v23.3h2.589V211.421h5.119Z" data-name="Path 1265" fill="#f26611" id="Path_1265" transform="translate(-163.637 -203.655)"/>
      <rect data-name="Rectangle 26755" fill="#f26611" height="18.12" id="Rectangle_26755" transform="translate(5.181 10.354)" width="2.589"/>
    </g>
    <g data-name="Group 5241" id="Group_5241" transform="translate(226.661 203.601)">
      <path d="M278.69,211.421v-2.589h0v-2.588h0v-2.589h-7.649v2.589h5.06v2.588h-5.118v23.3h2.589V211.421h5.119Z" data-name="Path 1266" fill="#0053a2" id="Path_1266" transform="translate(-270.983 -203.655)"/>
      <rect data-name="Rectangle 26756" fill="#0053a2" height="18.12" id="Rectangle_26756" transform="translate(5.181 10.354)" width="2.589"/>
    </g>
    <g data-name="Group 5242" id="Group_5242" transform="translate(182.569 203.417)">
      <path d="M213.889,203.417v28.556h7.778v-7.766h2.589v7.766h7.774V203.417Zm15.55,25.968h-2.594v-7.765h-7.771v7.765h-2.592V206h12.958Z" data-name="Path 1267" fill="#0053a2" id="Path_1267" transform="translate(-213.889 -203.417)"/>
      <path d="M228.375,210.227H220.6v10.355h7.777Zm-2.592,7.766h-2.589v-5.177h2.589Z" data-name="Path 1268" fill="#0053a2" id="Path_1268" transform="translate(-215.417 -204.968)"/>
    </g>
    <g data-name="Group 5243" id="Group_5243" transform="translate(237.019 203.417)">
      <path d="M284.395,203.417v28.556h7.777v-7.766h2.589v7.766h7.775V203.417Zm15.55,25.968h-2.594v-7.765h-7.771v7.765h-2.593V206h12.958Z" data-name="Path 1269" fill="#0053a2" id="Path_1269" transform="translate(-284.395 -203.417)"/>
      <path d="M298.881,210.227H291.1v10.355h7.778Zm-2.593,7.766H293.7v-5.177h2.589Z" data-name="Path 1270" fill="#0053a2" id="Path_1270" transform="translate(-285.923 -204.968)"/>
    </g>
    <g data-name="Group 5247" id="Group_5247" transform="translate(203.38 203.518)">
      <rect data-name="Rectangle 26757" fill="#0053a2" height="28.474" id="Rectangle_26757" transform="translate(18.009 0.083)" width="2.588"/>
      <rect data-name="Rectangle 26758" fill="#0053a2" height="2.589" id="Rectangle_26758" transform="translate(6.597 28.556) rotate(180)" width="5.057"/>
      <g data-name="Group 5244" id="Group_5244" transform="translate(0 0.122)">
        <path d="M240.836,233.561h2.588V214.669l-2.588-4.725Z" data-name="Path 1271" fill="#0053a2" id="Path_1271" transform="translate(-240.836 -205.127)"/>
        <path d="M264.682,239.762v-2.589h-5.515l1.418,2.589Z" data-name="Path 1272" fill="#0053a2" id="Path_1272" transform="translate(-245.01 -211.328)"/>
        <path d="M244.187,209.825v4.817l8.93,16.3h2.638Z" data-name="Path 1273" fill="#0053a2" id="Path_1273" transform="translate(-241.599 -205.1)"/>
        <path d="M240.836,203.706v4.817l2.588,4.725v-4.817Z" data-name="Path 1274" fill="#0053a2" id="Path_1274" transform="translate(-240.836 -203.706)"/>
        <path d="M258.389,237.173h-2.638l1.418,2.589h2.638Z" data-name="Path 1275" fill="#0053a2" id="Path_1275" transform="translate(-244.232 -211.328)"/>
      </g>
      <g data-name="Group 5245" id="Group_5245" transform="translate(5.126 19.102)">
        <path d="M247.473,237.737h2.588v-4.729l-2.588-4.725Z" data-name="Path 1276" fill="#0053a2" id="Path_1276" transform="translate(-247.473 -228.282)"/>
      </g>
      <g data-name="Group 5246" id="Group_5246" transform="translate(2.566)">
        <path d="M260.208,203.655H257.62v14.08l2.588,4.725Z" data-name="Path 1277" fill="#0053a2" id="Path_1277" transform="translate(-247.224 -203.572)"/>
        <path d="M246.8,203.548h-2.638l10.4,18.98v-4.817Z" data-name="Path 1278" fill="#0053a2" id="Path_1278" transform="translate(-244.158 -203.548)"/>
        <path d="M257.62,221.887V226.7l2.588,4.725v-4.817Z" data-name="Path 1279" fill="#0053a2" id="Path_1279" transform="translate(-247.224 -207.724)"/>
      </g>
    </g>
    <rect data-name="Rectangle 26759" fill="#f26611" height="2.52" id="Rectangle_26759" transform="translate(89.249 229.475)" width="2.52"/>
    <rect data-name="Rectangle 26760" fill="#f26611" height="2.52" id="Rectangle_26760" transform="translate(82.8 224.229)" width="8.969"/>
    <rect data-name="Rectangle 26761" fill="#f26611" height="6.506" id="Rectangle_26761" transform="translate(89.249 224.229)" width="2.52"/>
    <rect data-name="Rectangle 26762" fill="#f26611" height="16.494" id="Rectangle_26762" transform="translate(81.542 210.255)" width="2.52"/>
    <rect data-name="Rectangle 26763" fill="#f26611" height="2.52" id="Rectangle_26763" transform="translate(81.542 208.676)" width="8.967"/>
    <rect data-name="Rectangle 26764" fill="#f26611" height="2.52" id="Rectangle_26764" transform="translate(89.249 208.676)" width="2.52"/>
    <rect data-name="Rectangle 26765" fill="#f26611" height="6.82" id="Rectangle_26765" transform="translate(89.249 203.59)" width="2.52"/>
    <rect data-name="Rectangle 26766" fill="#f26611" height="2.52" id="Rectangle_26766" transform="translate(78.208 203.59)" width="8.514"/>
    <rect data-name="Rectangle 26767" fill="#f26611" height="26.599" id="Rectangle_26767" transform="translate(76.36 203.59)" width="2.52"/>
    <rect data-name="Rectangle 26768" fill="#f26611" height="2.52" id="Rectangle_26768" transform="translate(76.36 229.492)" width="13.661"/>
  </g>
</svg>
